<svg width="22" height="22" viewBox="0 0 22 22" fill="none" xmlns="http://www.w3.org/2000/svg">
<path fill-rule="evenodd" clip-rule="evenodd" d="M21 7H1V19C1 20.1046 1.89543 21 3 21H19C20.1046 21 21 20.1046 21 19V7ZM5 10C4.44772 10 4 10.4477 4 11V12.2C4 12.7523 4.44772 13.2 5 13.2H6.5C7.05228 13.2 7.5 12.7523 7.5 12.2V11C7.5 10.4477 7.05228 10 6.5 10H5ZM5 14.8C4.44772 14.8 4 15.2477 4 15.8V17C4 17.5523 4.44772 18 5 18H6.5C7.05228 18 7.5 17.5523 7.5 17V15.8C7.5 15.2477 7.05228 14.8 6.5 14.8H5ZM10.25 14.8C9.69772 14.8 9.25 15.2477 9.25 15.8V17C9.25 17.5523 9.69771 18 10.25 18H11.75C12.3023 18 12.75 17.5523 12.75 17V15.8C12.75 15.2477 12.3023 14.8 11.75 14.8H10.25ZM14.5 15.8C14.5 15.2477 14.9477 14.8 15.5 14.8H17C17.5523 14.8 18 15.2477 18 15.8V17C18 17.5523 17.5523 18 17 18H15.5C14.9477 18 14.5 17.5523 14.5 17V15.8ZM9.25 11C9.25 10.4477 9.69772 10 10.25 10H11.75C12.3023 10 12.75 10.4477 12.75 11V12.2C12.75 12.7523 12.3023 13.2 11.75 13.2H10.25C9.69771 13.2 9.25 12.7523 9.25 12.2V11ZM15.5 10C14.9477 10 14.5 10.4477 14.5 11V12.2C14.5 12.7523 14.9477 13.2 15.5 13.2H17C17.5523 13.2 18 12.7523 18 12.2V11C18 10.4477 17.5523 10 17 10H15.5Z" fill="#C3C5CA"/>
<path fill-rule="evenodd" clip-rule="evenodd" d="M21 7H1V19C1 20.1046 1.89543 21 3 21H19C20.1046 21 21 20.1046 21 19V7ZM5 10C4.44772 10 4 10.4477 4 11V12.2C4 12.7523 4.44772 13.2 5 13.2H6.5C7.05228 13.2 7.5 12.7523 7.5 12.2V11C7.5 10.4477 7.05228 10 6.5 10H5ZM5 14.8C4.44772 14.8 4 15.2477 4 15.8V17C4 17.5523 4.44772 18 5 18H6.5C7.05228 18 7.5 17.5523 7.5 17V15.8C7.5 15.2477 7.05228 14.8 6.5 14.8H5ZM10.25 14.8C9.69772 14.8 9.25 15.2477 9.25 15.8V17C9.25 17.5523 9.69771 18 10.25 18H11.75C12.3023 18 12.75 17.5523 12.75 17V15.8C12.75 15.2477 12.3023 14.8 11.75 14.8H10.25ZM14.5 15.8C14.5 15.2477 14.9477 14.8 15.5 14.8H17C17.5523 14.8 18 15.2477 18 15.8V17C18 17.5523 17.5523 18 17 18H15.5C14.9477 18 14.5 17.5523 14.5 17V15.8ZM9.25 11C9.25 10.4477 9.69772 10 10.25 10H11.75C12.3023 10 12.75 10.4477 12.75 11V12.2C12.75 12.7523 12.3023 13.2 11.75 13.2H10.25C9.69771 13.2 9.25 12.7523 9.25 12.2V11ZM15.5 10C14.9477 10 14.5 10.4477 14.5 11V12.2C14.5 12.7523 14.9477 13.2 15.5 13.2H17C17.5523 13.2 18 12.7523 18 12.2V11C18 10.4477 17.5523 10 17 10H15.5Z" fill="url(#paint0_linear_5754_21135)"/>
<path d="M5 1H3C1.89543 1 1 1.89543 1 3V5H21V3C21 1.89543 20.1046 1 19 1H17V2C17 2.55228 16.5523 3 16 3C15.4477 3 15 2.55228 15 2V1H7V2C7 2.55228 6.55228 3 6 3C5.44772 3 5 2.55228 5 2V1Z" fill="#C3C5CA"/>
<path d="M5 1H3C1.89543 1 1 1.89543 1 3V5H21V3C21 1.89543 20.1046 1 19 1H17V2C17 2.55228 16.5523 3 16 3C15.4477 3 15 2.55228 15 2V1H7V2C7 2.55228 6.55228 3 6 3C5.44772 3 5 2.55228 5 2V1Z" fill="url(#paint1_linear_5754_21135)"/>
<defs>
<linearGradient id="paint0_linear_5754_21135" x1="11" y1="1" x2="11" y2="21" gradientUnits="userSpaceOnUse">
<stop stop-color="#CBCDD6"/>
<stop offset="0.734375" stop-color="#C7CAD1"/>
<stop offset="1" stop-color="#C3C5CA"/>
</linearGradient>
<linearGradient id="paint1_linear_5754_21135" x1="11" y1="1" x2="11" y2="21" gradientUnits="userSpaceOnUse">
<stop stop-color="#CBCDD6"/>
<stop offset="0.734375" stop-color="#C7CAD1"/>
<stop offset="1" stop-color="#C3C5CA"/>
</linearGradient>
</defs>
</svg>
