<svg width="20" height="20" viewBox="0 0 20 20" fill="none" xmlns="http://www.w3.org/2000/svg">
<path fill-rule="evenodd" clip-rule="evenodd" d="M10 20C15.5228 20 20 15.5228 20 10C20 4.47715 15.5228 0 10 0C4.47715 0 0 4.47715 0 10C0 15.5228 4.47715 20 10 20ZM10.7691 5.12835C10.7691 4.70351 10.4247 4.35912 9.99991 4.35912C9.57508 4.35912 9.23068 4.70351 9.23068 5.12835V9.62016C9.23068 10.4483 9.67442 11.2129 10.3934 11.6238L14.1054 13.7449C14.4743 13.9557 14.9442 13.8276 15.155 13.4587C15.3657 13.0899 15.2376 12.62 14.8687 12.4092L11.1567 10.288C10.9171 10.1511 10.7691 9.8962 10.7691 9.62016V5.12835Z" fill="#F3B71D"/>
</svg>
