<svg width="20" height="15" viewBox="0 0 20 15" fill="none" xmlns="http://www.w3.org/2000/svg">
<path d="M1.42857 0C0.639593 0 0 0.651222 0 1.45455V3.66373C0 3.78251 0.0962829 3.87879 0.215054 3.87879H19.7849C19.9037 3.87879 20 3.7825 20 3.66373V1.45455C20 0.651222 19.3604 0 18.5714 0H1.42857Z" fill="#45A967"/>
<path fill-rule="evenodd" clip-rule="evenodd" d="M20 6.27566C20 6.15689 19.9037 6.06061 19.7849 6.06061H0.215054C0.0962826 6.06061 0 6.15689 0 6.27566V13.0909C0 13.8942 0.639594 14.5455 1.42857 14.5455H18.5714C19.3604 14.5455 20 13.8942 20 13.0909V6.27566ZM3.69048 8C3.09874 8 2.61905 8.48842 2.61905 9.09091C2.61905 9.6934 3.09874 10.1818 3.69048 10.1818H5.35714C5.94888 10.1818 6.42857 9.6934 6.42857 9.09091C6.42857 8.48842 5.94888 8 5.35714 8H3.69048Z" fill="#45A967"/>
</svg>
