<svg width="60" height="62" viewBox="0 0 60 62" fill="none" xmlns="http://www.w3.org/2000/svg">
<g filter="url(#filter0_d_986_4369)">
<rect x="11" y="9" width="38" height="40" rx="10" fill="white" shape-rendering="crispEdges"/>
<g filter="url(#filter1_d_986_4369)">
<path d="M24 36.3125C24 36.7601 24.158 37.1893 24.4393 37.5057C24.7206 37.8222 25.1022 38 25.5 38H34.5C34.8978 38 35.2794 37.8222 35.5607 37.5057C35.842 37.1893 36 36.7601 36 36.3125V24.5H24V36.3125ZM32.5 27.3125C32.5 27.1633 32.5527 27.0202 32.6464 26.9148C32.7402 26.8093 32.8674 26.75 33 26.75C33.1326 26.75 33.2598 26.8093 33.3536 26.9148C33.4473 27.0202 33.5 27.1633 33.5 27.3125V35.1875C33.5 35.3367 33.4473 35.4798 33.3536 35.5852C33.2598 35.6907 33.1326 35.75 33 35.75C32.8674 35.75 32.7402 35.6907 32.6464 35.5852C32.5527 35.4798 32.5 35.3367 32.5 35.1875V27.3125ZM29.5 27.3125C29.5 27.1633 29.5527 27.0202 29.6464 26.9148C29.7402 26.8093 29.8674 26.75 30 26.75C30.1326 26.75 30.2598 26.8093 30.3536 26.9148C30.4473 27.0202 30.5 27.1633 30.5 27.3125V35.1875C30.5 35.3367 30.4473 35.4798 30.3536 35.5852C30.2598 35.6907 30.1326 35.75 30 35.75C29.8674 35.75 29.7402 35.6907 29.6464 35.5852C29.5527 35.4798 29.5 35.3367 29.5 35.1875V27.3125ZM26.5 27.3125C26.5 27.1633 26.5527 27.0202 26.6464 26.9148C26.7402 26.8093 26.8674 26.75 27 26.75C27.1326 26.75 27.2598 26.8093 27.3536 26.9148C27.4473 27.0202 27.5 27.1633 27.5 27.3125V35.1875C27.5 35.3367 27.4473 35.4798 27.3536 35.5852C27.2598 35.6907 27.1326 35.75 27 35.75C26.8674 35.75 26.7402 35.6907 26.6464 35.5852C26.5527 35.4798 26.5 35.3367 26.5 35.1875V27.3125ZM36.5 21.125H32.75L32.4563 20.4676C32.394 20.327 32.2982 20.2088 32.1795 20.1262C32.0608 20.0436 31.9239 19.9999 31.7844 20H28.2125C28.0732 19.9994 27.9367 20.0429 27.8184 20.1256C27.7001 20.2083 27.6049 20.3268 27.5437 20.4676L27.25 21.125H23.5C23.3674 21.125 23.2402 21.1843 23.1464 21.2898C23.0527 21.3952 23 21.5383 23 21.6875V22.8125C23 22.9617 23.0527 23.1048 23.1464 23.2103C23.2402 23.3157 23.3674 23.375 23.5 23.375H36.5C36.6326 23.375 36.7598 23.3157 36.8536 23.2103C36.9473 23.1048 37 22.9617 37 22.8125V21.6875C37 21.5383 36.9473 21.3952 36.8536 21.2898C36.7598 21.1843 36.6326 21.125 36.5 21.125Z" fill="#C5C7D3"/>
</g>
</g>
<defs>
<filter id="filter0_d_986_4369" x="0" y="0" width="60" height="62" filterUnits="userSpaceOnUse" color-interpolation-filters="sRGB">
<feFlood flood-opacity="0" result="BackgroundImageFix"/>
<feColorMatrix in="SourceAlpha" type="matrix" values="0 0 0 0 0 0 0 0 0 0 0 0 0 0 0 0 0 0 127 0" result="hardAlpha"/>
<feOffset dy="2"/>
<feGaussianBlur stdDeviation="5.5"/>
<feComposite in2="hardAlpha" operator="out"/>
<feColorMatrix type="matrix" values="0 0 0 0 0.047691 0 0 0 0 0.118058 0 0 0 0 0.170833 0 0 0 0.04 0"/>
<feBlend mode="normal" in2="BackgroundImageFix" result="effect1_dropShadow_986_4369"/>
<feBlend mode="normal" in="SourceGraphic" in2="effect1_dropShadow_986_4369" result="shape"/>
</filter>
<filter id="filter1_d_986_4369" x="12" y="0" width="36" height="62" filterUnits="userSpaceOnUse" color-interpolation-filters="sRGB">
<feFlood flood-opacity="0" result="BackgroundImageFix"/>
<feColorMatrix in="SourceAlpha" type="matrix" values="0 0 0 0 0 0 0 0 0 0 0 0 0 0 0 0 0 0 127 0" result="hardAlpha"/>
<feOffset dy="2"/>
<feGaussianBlur stdDeviation="5.5"/>
<feComposite in2="hardAlpha" operator="out"/>
<feColorMatrix type="matrix" values="0 0 0 0 0.047691 0 0 0 0 0.118058 0 0 0 0 0.170833 0 0 0 0.04 0"/>
<feBlend mode="normal" in2="BackgroundImageFix" result="effect1_dropShadow_986_4369"/>
<feBlend mode="normal" in="SourceGraphic" in2="effect1_dropShadow_986_4369" result="shape"/>
</filter>
</defs>
</svg>
