<svg width="28" height="28" viewBox="0 0 28 28" fill="none" xmlns="http://www.w3.org/2000/svg">
<circle cx="14" cy="14" r="14" fill="#DDDEE2"/>
<path d="M6.2581 7.54834C5.54547 7.54834 4.96777 8.12604 4.96777 8.83866V10.7741C4.96777 10.8929 5.06406 10.9892 5.18283 10.9892H22.8172C22.936 10.9892 23.0323 10.8929 23.0323 10.7741V8.83866C23.0323 8.12604 22.4546 7.54834 21.742 7.54834H6.2581Z" fill="white"/>
<path fill-rule="evenodd" clip-rule="evenodd" d="M23.0323 13.1397C23.0323 13.021 22.936 12.9247 22.8172 12.9247H5.18283C5.06406 12.9247 4.96777 13.021 4.96777 13.1397V19.1612C4.96777 19.8739 5.54547 20.4516 6.2581 20.4516H21.742C22.4546 20.4516 23.0323 19.8739 23.0323 19.1612V13.1397ZM8.30111 14.6451C7.76664 14.6451 7.33336 15.0784 7.33336 15.6129C7.33336 16.1473 7.76664 16.5806 8.30111 16.5806H9.80648C10.341 16.5806 10.7742 16.1473 10.7742 15.6129C10.7742 15.0784 10.341 14.6451 9.80648 14.6451H8.30111Z" fill="white"/>
</svg>
