<svg width="28" height="28" viewBox="0 0 28 28" fill="none" xmlns="http://www.w3.org/2000/svg">
<circle cx="14" cy="14" r="14" fill="#C5115E"/>
<path d="M6.26989 12.2254C6.12698 12.1301 5.93555 12.2326 5.93555 12.4043V19.0539C5.93555 19.7665 6.51324 20.3442 7.22587 20.3442H20.7743C21.4869 20.3442 22.0646 19.7665 22.0646 19.0539V12.4043C22.0646 12.2326 21.8732 12.1301 21.7302 12.2254L15.4316 16.4245C14.5647 17.0024 13.4354 17.0024 12.5686 16.4245L6.26989 12.2254Z" fill="white"/>
<path d="M22.0646 9.76113V8.94633C22.0646 8.2337 21.4869 7.65601 20.7743 7.65601H7.22587C6.51324 7.65601 5.93555 8.2337 5.93555 8.94633V9.76113C5.93555 10.1925 6.15118 10.5955 6.51014 10.8348L13.2843 15.3509C13.7178 15.6398 14.2824 15.6398 14.7158 15.3509L21.49 10.8348C21.8489 10.5955 22.0646 10.1925 22.0646 9.76113Z" fill="white"/>
</svg>
