<svg width="28" height="28" viewBox="0 0 28 28" fill="none" xmlns="http://www.w3.org/2000/svg">
<circle cx="14" cy="14" r="14" fill="#C5115E"/>
<path fill-rule="evenodd" clip-rule="evenodd" d="M5.93548 9.16129C5.93548 8.44867 6.51318 7.87097 7.22581 7.87097H16.9032C17.022 7.87097 17.1183 7.96726 17.1183 8.08603V10.6667C17.1183 11.3793 17.696 11.957 18.4086 11.957H21.4194C22.8446 11.957 24 13.1124 24 14.5376V16.6882C24 17.4008 23.4223 17.9785 22.7097 17.9785H21.8495C21.8495 19.1662 20.8867 20.129 19.6989 20.129C18.5112 20.129 17.5484 19.1662 17.5484 17.9785H11.957C11.957 19.1662 10.9942 20.129 9.80645 20.129C8.61872 20.129 7.65591 19.1662 7.65591 17.9785H7.22581C6.51318 17.9785 5.93548 17.4008 5.93548 16.6882V16.2581C5.93548 16.1393 5.83919 16.043 5.72043 16.043H4.64516C4.28887 16.043 4 15.7541 4 15.3979C4 15.0416 4.28887 14.7527 4.64516 14.7527H9.80645C10.1627 14.7527 10.4516 14.4638 10.4516 14.1075C10.4516 13.7512 10.1627 13.4624 9.80645 13.4624H4.64516C4.28887 13.4624 4 13.1735 4 12.8172C4 12.4609 4.28887 12.172 4.64516 12.172H8.08602C8.44231 12.172 8.73118 11.8832 8.73118 11.5269C8.73118 11.1706 8.44231 10.8817 8.08602 10.8817H5.29032C4.93403 10.8817 4.64516 10.5929 4.64516 10.2366C4.64516 9.88028 4.93403 9.5914 5.29032 9.5914H5.72043C5.83919 9.5914 5.93548 9.49511 5.93548 9.37635V9.16129ZM9.80645 19.0538C10.4003 19.0538 10.8817 18.5724 10.8817 17.9785C10.8817 17.3846 10.4003 16.9032 9.80645 16.9032C9.21259 16.9032 8.73118 17.3846 8.73118 17.9785C8.73118 18.5724 9.21259 19.0538 9.80645 19.0538ZM19.6989 19.0538C20.2928 19.0538 20.7742 18.5724 20.7742 17.9785C20.7742 17.3846 20.2928 16.9032 19.6989 16.9032C19.1051 16.9032 18.6237 17.3846 18.6237 17.9785C18.6237 18.5724 19.1051 19.0538 19.6989 19.0538Z" fill="white"/>
<path d="M18.4325 7.87097C18.3006 7.87097 18.1935 7.97797 18.1935 8.10991V10.0215C18.1935 10.4966 18.5787 10.8817 19.0538 10.8817H20.9654C21.0973 10.8817 21.2043 10.7747 21.2043 10.6428C21.2043 8.99318 20.0821 7.87097 18.4325 7.87097Z" fill="white"/>
</svg>
