<svg width="28" height="28" viewBox="0 0 28 28" fill="none" xmlns="http://www.w3.org/2000/svg">
<circle cx="14" cy="14" r="14" fill="#DDDEE2"/>
<path fill-rule="evenodd" clip-rule="evenodd" d="M13.9999 22.3871C18.632 22.3871 22.387 18.6321 22.387 14C22.387 9.36795 18.632 5.61292 13.9999 5.61292C9.36782 5.61292 5.61279 9.36795 5.61279 14C5.61279 18.6321 9.36782 22.3871 13.9999 22.3871ZM14.645 9.91411C14.645 9.5578 14.3561 9.26895 13.9998 9.26895C13.6435 9.26895 13.3547 9.5578 13.3547 9.91411V13.6814C13.3547 14.376 13.7268 15.0173 14.3299 15.3619L17.4432 17.1409C17.7525 17.3177 18.1466 17.2102 18.3234 16.9009C18.5002 16.5915 18.3927 16.1974 18.0833 16.0206L14.97 14.2416C14.769 14.1267 14.645 13.913 14.645 13.6814V9.91411Z" fill="white"/>
</svg>
