<svg width="28" height="28" viewBox="0 0 28 28" fill="none" xmlns="http://www.w3.org/2000/svg">
<circle cx="14" cy="14" r="14" fill="#10121C"/>
<path fill-rule="evenodd" clip-rule="evenodd" d="M7.75946 7.75943C8.2434 7.2755 9.02801 7.2755 9.51194 7.75944L14.0001 12.2476L18.4883 7.75943C18.9723 7.2755 19.7569 7.2755 20.2408 7.75944C20.7247 8.24338 20.7247 9.02799 20.2408 9.51192L15.7525 14.0001L20.2407 18.4883C20.7246 18.9723 20.7246 19.7569 20.2407 20.2408C19.7567 20.7247 18.9721 20.7247 18.4882 20.2408L14 15.7526L9.51191 20.2407C9.02797 20.7246 8.24336 20.7246 7.75943 20.2406C7.2755 19.7567 7.2755 18.9721 7.75944 18.4882L12.2476 14.0001L7.75945 9.51191C7.27552 9.02797 7.27553 8.24336 7.75946 7.75943Z" fill="white"/>
</svg>
