<svg width="28" height="28" viewBox="0 0 28 28" fill="none" xmlns="http://www.w3.org/2000/svg">
<circle cx="14" cy="14" r="14" fill="#C5115E"/>
<path fill-rule="evenodd" clip-rule="evenodd" d="M14 22.3871C18.6321 22.3871 22.3871 18.6321 22.3871 14C22.3871 9.36795 18.6321 5.61292 14 5.61292C9.36795 5.61292 5.61292 9.36795 5.61292 14C5.61292 18.6321 9.36795 22.3871 14 22.3871ZM14.6451 9.91411C14.6451 9.5578 14.3563 9.26895 13.9999 9.26895C13.6436 9.26895 13.3548 9.5578 13.3548 9.91411V13.6814C13.3548 14.376 13.7269 15.0173 14.33 15.3619L17.4433 17.1409C17.7527 17.3177 18.1468 17.2102 18.3235 16.9009C18.5003 16.5915 18.3928 16.1974 18.0835 16.0206L14.9702 14.2416C14.7692 14.1267 14.6451 13.913 14.6451 13.6814V9.91411Z" fill="white"/>
</svg>
