<svg xmlns="http://www.w3.org/2000/svg" width="137" height="45" viewBox="0 0 776 380" class="css-koex10">
    <path d="M187.639 241.295C198.06 266.923 198.06 295.607 187.639 321.234C182.737 332.887 175.646 343.492 166.75 352.474C158.087 361.155 147.773 368.012 136.418 372.643C124.951 377.356 112.667 379.763 100.269 379.726C86.4591 379.726 74.5297 377.365 64.4809 372.643C54.432 367.92 47.8336 362.047 44.6856 355.022V374.631H9.15527e-05V110.147H46.1395V207.147C49.2792 200.13 55.7575 194.257 65.5744 189.527C75.3913 184.796 87.1964 182.435 100.99 182.444C113.232 182.421 125.35 184.895 136.604 189.713C147.875 194.478 158.113 201.387 166.75 210.055C175.646 219.038 182.737 229.642 187.639 241.295ZM144.954 301.253C147.669 294.945 149.032 288.138 148.956 281.271C149.02 274.345 147.658 267.48 144.954 261.103C142.415 255.112 138.637 249.725 133.87 245.296C128.917 240.802 123.117 237.342 116.809 235.119C109.749 232.636 102.309 231.408 94.8262 231.491C84.1075 231.28 73.5018 233.712 63.9466 238.574C54.9912 243.296 49.0597 249.169 46.1519 256.194V305.975C49.0597 313 54.9912 318.873 63.9466 323.595C73.5018 328.457 84.1075 330.89 94.8262 330.678C102.31 330.763 109.751 329.531 116.809 327.038C123.125 324.83 128.932 321.373 133.883 316.873C138.596 312.483 142.349 307.165 144.905 301.253H144.954Z" fill="white"></path>
    <path d="M231.555 151.924C226.559 146.885 223.464 140.271 222.795 133.208C222.126 126.144 223.925 119.066 227.886 113.18C231.847 107.293 237.726 102.96 244.521 100.919C251.317 98.8777 258.609 99.2538 265.159 101.983C271.708 104.713 277.11 109.627 280.444 115.89C283.779 122.153 284.84 129.378 283.448 136.336C282.056 143.293 278.297 149.554 272.81 154.052C267.322 158.55 260.446 161.008 253.351 161.008C249.289 161.066 245.259 160.29 241.51 158.727C237.761 157.165 234.373 154.849 231.555 151.924ZM230.461 187.576H276.6V374.631H230.461V187.576Z" fill="white"></path>
    <path d="M688.312 55.2957L579.084 164.524L469.843 55.2957L437.224 87.9276L556.008 206.712V374.63H602.147V206.712L720.932 87.9276L688.312 55.2957Z" fill="#9E1F62"></path>
    <path d="M766.923 9.0568C761.132 3.26132 753.276 0.00349843 745.084 2.81596e-06C736.891 -0.0034928 729.033 3.24762 723.237 9.03816C717.442 14.8287 714.184 22.6843 714.181 30.8769C714.177 39.0694 717.428 46.9278 723.219 52.7233C729.009 58.5155 736.864 61.7701 745.054 61.7713C753.244 61.7725 761.099 58.5201 766.892 52.7295C772.684 46.939 775.938 39.0847 775.94 30.8944C775.941 22.7042 772.688 14.849 766.898 9.0568H766.923Z" fill="#fff"></path>
    <path d="M434.653 9.31655C428.862 3.52436 421.008 0.269693 412.817 0.268528C404.627 0.267363 396.772 3.51979 390.98 9.31033C385.188 15.1009 381.933 22.9552 381.932 31.1454C381.931 39.3356 385.183 47.1909 390.974 52.983C396.764 58.7752 404.618 62.0299 412.809 62.0311C420.999 62.0322 428.854 58.7798 434.646 52.9892C440.439 47.1987 443.693 39.3444 443.694 31.1542C443.696 22.964 440.443 15.1087 434.653 9.31655Z" fill="#fff"></path>
    <path d="M506.576 374.629H460.437V273.639C460.437 260.07 456.56 249.652 448.806 242.387C441.052 235.122 431.483 231.489 420.101 231.489C410.485 231.4 401.062 234.182 393.036 239.479C384.917 244.814 380.013 251.595 378.323 259.821V374.629H332.184V187.574H376.919V206.474C379.595 199.449 385.228 193.696 393.819 189.214C402.41 184.732 413.49 182.491 427.06 182.491C436.835 182.51 446.538 184.169 455.765 187.4C465.156 190.661 473.788 195.793 481.139 202.486C489.016 209.747 495.285 218.577 499.543 228.407C504.265 238.928 506.626 251.462 506.626 266.01L506.576 374.629Z" fill="white"></path>
</svg>