<svg width="26" height="27" viewBox="0 0 26 27" fill="none" xmlns="http://www.w3.org/2000/svg">
<path id="Subtract" d="M0.09375 7.33356V19.9656C0.09375 20.3377 0.303968 20.6778 0.636762 20.8442L12.0359 26.5438C12.3101 26.6808 12.6325 26.6821 12.9077 26.5472L24.5439 20.8423C24.8804 20.6773 25.0938 20.3351 25.0938 19.9603V7.33037C25.0938 6.95774 24.8829 6.61719 24.5493 6.45107L13.1028 0.750472C12.8284 0.613846 12.506 0.613091 12.2311 0.748429L8.38378 2.64199L20.0348 8.68681V15.3665L17.137 16.8891V10.2585L5.34027 4.13995L0.642278 6.45222C0.306456 6.61751 0.09375 6.95927 0.09375 7.33356Z" fill="#C3C5CA"/>
</svg>
