<svg width="25" height="25" viewBox="0 0 25 25" fill="none" xmlns="http://www.w3.org/2000/svg">
<path d="M20.1613 4.37695H6.49414L16.8185 0.182663C18.411 -0.464349 20.1613 0.687172 20.1613 2.38203V4.37695Z" fill="#C3C5CA"/>
<path d="M3.22581 5.96334C1.44437 5.96334 0 7.38384 0 9.13611V21.8272C0 23.5795 1.44437 25 3.22581 25H20.1613C21.9427 25 23.3871 23.5795 23.3871 21.8272V21.034H17.7419C16.4059 21.034 15.3226 19.9687 15.3226 18.6544V12.3089C15.3226 10.9947 16.4059 9.92931 17.7419 9.92931H23.3871V9.13611C23.3871 7.38384 21.9427 5.96334 20.1613 5.96334H3.22581Z" fill="#C3C5CA"/>
<path fill-rule="evenodd" clip-rule="evenodd" d="M18.5484 11.5157C17.6577 11.5157 16.9355 12.2259 16.9355 13.1021V17.8613C16.9355 18.7374 17.6577 19.4476 18.5484 19.4476H23.3871C24.2778 19.4476 25 18.7374 25 17.8613V13.1021C25 12.2259 24.2778 11.5157 23.3871 11.5157H18.5484ZM19.3548 13.8953C18.9095 13.8953 18.5484 14.2504 18.5484 14.6885V16.2749C18.5484 16.7129 18.9095 17.0681 19.3548 17.0681C19.8002 17.0681 20.1613 16.7129 20.1613 16.2749V14.6885C20.1613 14.2504 19.8002 13.8953 19.3548 13.8953Z" fill="#C3C5CA"/>
</svg>
