<svg width="74" height="74" viewBox="0 0 74 74" fill="none" xmlns="http://www.w3.org/2000/svg">
<path d="M26.6893 36.1571C25.6715 35.2241 24.0901 35.2929 23.1571 36.3107C22.2241 37.3285 22.2929 38.9099 23.3107 39.8429L26.6893 36.1571ZM33.7273 46L32.038 47.8429C32.9938 48.719 34.4608 48.719 35.4166 47.8429L33.7273 46ZM50.6893 33.8429C51.7071 32.9099 51.7759 31.3285 50.8429 30.3107C49.9099 29.2929 48.3285 29.2241 47.3107 30.1571L50.6893 33.8429ZM68.5 37C68.5 54.397 54.397 68.5 37 68.5V73.5C57.1584 73.5 73.5 57.1584 73.5 37H68.5ZM37 68.5C19.603 68.5 5.5 54.397 5.5 37H0.5C0.5 57.1584 16.8416 73.5 37 73.5V68.5ZM5.5 37C5.5 19.603 19.603 5.5 37 5.5V0.5C16.8416 0.5 0.5 16.8416 0.5 37H5.5ZM37 5.5C54.397 5.5 68.5 19.603 68.5 37H73.5C73.5 16.8416 57.1584 0.5 37 0.5V5.5ZM23.3107 39.8429L32.038 47.8429L35.4166 44.1571L26.6893 36.1571L23.3107 39.8429ZM35.4166 47.8429L50.6893 33.8429L47.3107 30.1571L32.038 44.1571L35.4166 47.8429Z" fill="#C5115E"/>
</svg>
