<svg width="15" height="15" viewBox="0 0 15 15" fill="none" xmlns="http://www.w3.org/2000/svg">
<path opacity="0.2" d="M7.05049 12.1201L12.5973 6.57331C11.6641 6.18368 10.8165 5.6144 10.1029 4.89786C9.38601 4.18405 8.81648 3.33625 8.42669 2.4027L2.87989 7.94951C2.44716 8.38224 2.23042 8.59898 2.04442 8.83747C1.82476 9.11892 1.63641 9.42346 1.48269 9.74569C1.35295 10.0187 1.2562 10.3097 1.06271 10.8902L0.0412452 13.9523C-0.00576786 14.0925 -0.0127429 14.243 0.0211037 14.387C0.0549504 14.5309 0.128277 14.6626 0.232842 14.7672C0.337407 14.8717 0.469064 14.9451 0.613015 14.9789C0.756966 15.0127 0.907505 15.0058 1.04771 14.9588L4.10985 13.9373C4.69108 13.7438 4.98132 13.6471 5.25431 13.5173C5.5768 13.3636 5.88129 13.1753 6.16253 12.9556C6.40102 12.7696 6.61776 12.5528 7.05049 12.1201ZM14.1362 5.03436C14.6893 4.4813 15 3.7312 15 2.94906C15 2.16692 14.6893 1.41682 14.1362 0.86376C13.5832 0.310704 12.8331 5.82739e-09 12.0509 0C11.2688 -5.82739e-09 10.5187 0.310704 9.96564 0.86376L9.30041 1.52899L9.32891 1.61223C9.65673 2.55024 10.1932 3.4016 10.8979 4.10214C11.6194 4.82789 12.5005 5.37493 13.471 5.69959L14.1362 5.03436Z" fill="#10121C"/>
</svg>
