<svg width="28" height="28" viewBox="0 0 28 28" fill="none" xmlns="http://www.w3.org/2000/svg">
<path fill-rule="evenodd" clip-rule="evenodd" d="M18.9422 10.3905C19.4629 10.9112 19.4629 11.7554 18.9422 12.2761L13.6088 17.6095C13.0881 18.1302 12.2439 18.1302 11.7232 17.6095L9.05654 14.9428C8.53584 14.4221 8.53584 13.5779 9.05654 13.0572C9.57724 12.5365 10.4215 12.5365 10.9422 13.0572L12.666 14.781L17.0565 10.3905C17.5772 9.86983 18.4215 9.86983 18.9422 10.3905Z" fill="#13B65E"/>
<path fill-rule="evenodd" clip-rule="evenodd" d="M14.8958 1.01258C14.7973 0.922996 14.6882 0.8506 14.5725 0.795646C14.3912 0.709332 14.1952 0.666676 13.9998 0.666748C13.8043 0.666676 13.6084 0.709334 13.4271 0.795647C13.3114 0.850601 13.2022 0.922996 13.1037 1.01258C10.2505 3.53115 6.52969 4.84215 2.7274 4.66816C2.11383 4.64008 1.56047 5.03478 1.38724 5.62405C0.73205 7.85285 0.531575 10.1906 0.797726 12.4984C1.06388 14.8062 1.79122 17.037 2.93654 19.0582C4.08186 21.0793 5.62179 22.8496 7.4648 24.2639C9.30782 25.6781 11.4163 26.7075 13.665 27.2907C13.8846 27.3477 14.115 27.3477 14.3345 27.2907C16.5832 26.7075 18.6917 25.6781 20.5348 24.2639C22.3778 22.8496 23.9177 21.0793 25.063 19.0582C26.2083 17.037 26.9357 14.8062 27.2018 12.4984C27.468 10.1906 27.2675 7.85285 26.6123 5.62405C26.4391 5.03478 25.8857 4.64008 25.2722 4.66816C21.4699 4.84215 17.7491 3.53115 14.8958 1.01258ZM13.9998 3.72975C11.0456 6.01393 7.43055 7.28354 3.69582 7.34762C3.34492 8.93542 3.26 10.5729 3.44683 12.1929C3.67204 14.1457 4.28749 16.0332 5.2566 17.7435C6.22572 19.4537 7.52873 20.9516 9.08821 22.1483C10.5559 23.2745 12.2225 24.1123 13.9998 24.6184C15.777 24.1123 17.4437 23.2745 18.9114 22.1483C20.4708 20.9516 21.7738 19.4537 22.743 17.7435C23.7121 16.0332 24.3275 14.1457 24.5527 12.1929C24.7396 10.5729 24.6546 8.93542 24.3037 7.34762C20.569 7.28354 16.954 6.01393 13.9998 3.72975Z" fill="#13B65E"/>
</svg>
