<svg width="72" height="36" viewBox="0 0 937 439" fill="none" xmlns="http://www.w3.org/2000/svg">
    <path d="M300.88 278.383C312.647 307.95 312.647 341.043 300.88 370.609C295.345 384.053 287.338 396.288 277.292 406.651C267.51 416.666 255.864 424.577 243.042 429.92C230.093 435.357 216.222 438.134 202.223 438.091C186.629 438.091 173.158 435.368 161.811 429.92C150.464 424.471 143.013 417.695 139.458 409.59V432.213H89V127.077H141.1V238.986C144.646 230.891 151.961 224.115 163.046 218.658C174.131 213.2 187.461 210.476 203.037 210.486C216.86 210.46 230.544 213.314 243.252 218.873C255.979 224.37 267.54 232.341 277.292 242.341C287.338 252.705 295.345 264.939 300.88 278.383ZM252.681 347.557C255.746 340.279 257.285 332.426 257.2 324.504C257.272 316.513 255.734 308.593 252.681 301.236C249.814 294.324 245.548 288.109 240.165 282.999C234.572 277.814 228.022 273.822 220.9 271.258C212.927 268.393 204.526 266.976 196.077 267.072C183.973 266.829 171.997 269.634 161.208 275.244C151.095 280.692 144.398 287.467 141.114 295.572V353.005C144.398 361.109 151.095 367.885 161.208 373.333C171.997 378.942 183.973 381.749 196.077 381.505C204.527 381.603 212.93 380.181 220.9 377.305C228.031 374.758 234.589 370.769 240.179 365.578C245.501 360.513 249.739 354.378 252.625 347.557H252.681Z" fill="#141516"/>
    <path d="M340.946 175.275C335.304 169.462 331.809 161.831 331.054 153.683C330.299 145.533 332.33 137.367 336.803 130.576C341.275 123.784 347.914 118.785 355.587 116.431C363.261 114.076 371.495 114.509 378.891 117.658C386.286 120.808 392.386 126.477 396.151 133.703C399.917 140.928 401.115 149.264 399.543 157.291C397.971 165.318 393.726 172.541 387.531 177.73C381.333 182.92 373.569 185.756 365.558 185.756C360.971 185.823 356.42 184.927 352.187 183.124C347.954 181.322 344.128 178.65 340.946 175.275ZM339.71 216.407H391.81V432.213H339.71V216.407Z" fill="#141516"/>
    <path d="M641.973 432.211H589.873V315.698C589.873 300.044 585.496 288.025 576.74 279.643C567.984 271.261 557.179 267.07 544.326 267.07C533.468 266.967 522.828 270.177 513.765 276.288C504.597 282.443 499.059 290.266 497.151 299.757V432.211H445.051V216.405H495.566V238.21C498.587 230.105 504.948 223.468 514.649 218.297C524.35 213.126 536.861 210.541 552.184 210.541C563.222 210.563 574.179 212.477 584.598 216.204C595.202 219.966 604.949 225.887 613.25 233.609C622.145 241.986 629.223 252.173 634.031 263.514C639.364 275.652 642.03 290.113 642.03 306.897L641.973 432.211Z" fill="#141516"/>
    <path d="M837.667 63.7949L714.328 189.812L590.974 63.7949L554.141 101.442L688.271 238.484V432.212H740.37V238.484L874.501 101.442L837.667 63.7949Z" fill="#C5115E"/>
    <path d="M926.434 10.4489C919.895 3.7626 911.024 0.00403615 901.774 3.24879e-06C892.522 -0.00402966 883.649 3.74679 877.104 10.4274C870.561 17.1079 866.882 26.171 866.878 35.6228C866.874 45.0745 870.545 54.1408 877.084 60.8271C883.622 67.5096 892.492 71.2644 901.74 71.2658C910.988 71.2672 919.858 67.5149 926.399 60.8342C932.939 54.1537 936.614 45.0922 936.616 35.643C936.617 26.1939 932.944 17.1314 926.406 10.4489H926.434Z" fill="#C5115E"/>
    <path d="M551.238 10.7485C544.699 4.06607 535.83 0.311146 526.581 0.309802C517.333 0.308458 508.463 4.0608 501.923 10.7414C495.383 17.422 491.707 26.4835 491.706 35.9326C491.705 45.3816 495.377 54.4443 501.916 61.1267C508.454 67.8092 517.323 71.5642 526.572 71.5655C535.82 71.5668 544.69 67.8145 551.23 61.1339C557.772 54.4533 561.446 45.3918 561.447 35.9427C561.449 26.4937 557.776 17.431 551.238 10.7485Z" fill="#C5115E"/>
</svg>
